<?xml version="1.0" encoding="UTF-8"?>
<svg xmlns="http://www.w3.org/2000/svg" xmlns:xlink="http://www.w3.org/1999/xlink" width="20pt" height="20pt" viewBox="0 0 20 20" version="1.1">
<g id="surface1">
<path style=" stroke:none;fill-rule:nonzero;fill:rgb(30.196078%,46.27451%,63.137255%);fill-opacity:1;" d="M 20 10 C 20 15.523438 15.523438 20 10 20 C 4.476562 20 0 15.523438 0 10 C 0 4.476562 4.476562 0 10 0 C 15.523438 0 20 4.476562 20 10 Z M 20 10 "/>
<path style=" stroke:none;fill-rule:evenodd;fill:rgb(100%,100%,100%);fill-opacity:1;" d="M 9.621094 14.386719 L 10.40625 14.386719 C 10.40625 14.386719 10.644531 14.359375 10.765625 14.230469 C 10.875 14.109375 10.875 13.882812 10.875 13.882812 C 10.875 13.882812 10.859375 12.832031 11.347656 12.675781 C 11.828125 12.523438 12.445312 13.695312 13.101562 14.144531 C 13.597656 14.484375 13.976562 14.410156 13.976562 14.410156 L 15.730469 14.386719 C 15.730469 14.386719 16.648438 14.328125 16.210938 13.609375 C 16.175781 13.550781 15.957031 13.074219 14.90625 12.097656 C 13.808594 11.078125 13.957031 11.242188 15.28125 9.480469 C 16.085938 8.402344 16.410156 7.746094 16.308594 7.464844 C 16.210938 7.199219 15.617188 7.269531 15.617188 7.269531 L 13.644531 7.28125 C 13.644531 7.28125 13.5 7.261719 13.390625 7.328125 C 13.285156 7.390625 13.214844 7.539062 13.214844 7.539062 C 13.214844 7.539062 12.902344 8.371094 12.484375 9.078125 C 11.605469 10.570312 11.253906 10.648438 11.113281 10.558594 C 10.777344 10.339844 10.859375 9.6875 10.859375 9.226562 C 10.859375 7.777344 11.082031 7.175781 10.433594 7.019531 C 10.21875 6.96875 10.0625 6.933594 9.511719 6.929688 C 8.808594 6.921875 8.210938 6.929688 7.875 7.09375 C 7.648438 7.207031 7.476562 7.449219 7.582031 7.464844 C 7.710938 7.480469 8.007812 7.542969 8.164062 7.757812 C 8.367188 8.03125 8.359375 8.652344 8.359375 8.652344 C 8.359375 8.652344 8.476562 10.355469 8.089844 10.566406 C 7.820312 10.710938 7.457031 10.414062 6.671875 9.058594 C 6.269531 8.367188 5.96875 7.601562 5.96875 7.601562 C 5.96875 7.601562 5.910156 7.457031 5.804688 7.378906 C 5.679688 7.285156 5.503906 7.257812 5.503906 7.257812 L 3.625 7.269531 C 3.625 7.269531 3.34375 7.277344 3.242188 7.398438 C 3.148438 7.507812 3.234375 7.734375 3.234375 7.734375 C 3.234375 7.734375 4.703125 11.171875 6.367188 12.902344 C 7.890625 14.488281 9.621094 14.386719 9.621094 14.386719 Z M 9.621094 14.386719 "/>
</g>
</svg>
